<svg width="128" height="128" viewBox="0 0 128 128" fill="none" xmlns="http://www.w3.org/2000/svg">
<g clip-path="url(#clip0_57_115)">
<path d="M56.1086 125.334C72.6844 125.115 90.1325 122.934 106.272 118.572C109.762 117.482 108.453 112.247 104.745 113.12C90.3506 116.609 75.7378 118.79 60.9065 119.444C46.0759 120.099 26.2282 120.317 14.6692 109.63C8.78041 104.177 8.99852 94.3627 8.56195 86.9476C7.90765 76.0421 8.12575 64.9193 8.78006 54.0142C9.21626 43.109 10.3068 31.9858 11.6154 21.0807C12.2697 15.192 15.5412 5.59546 12.7059 0.361005C12.4882 -0.0751998 11.8338 -0.0751998 11.6154 0.142902C6.59904 4.06874 6.81714 15.192 5.94473 21.0807C4.19991 34.1669 3.3275 47.0349 2.67318 60.121C2.01888 76.0421 -1.253 100.906 10.743 113.556C21.2122 125.116 41.7138 125.334 56.1086 125.334Z" fill="#585858"/>
<path d="M124.811 120.535C126.992 119.009 126.556 116.391 124.156 115.301C116.741 112.248 109.98 107.45 102.564 104.396C100.383 103.523 99.2928 106.795 101.038 107.885C106.708 111.375 112.379 114.647 118.05 118.136C116.305 119.009 114.56 119.881 112.815 120.754C109.98 121.844 107.145 122.062 104.527 123.371C102.564 124.243 103.437 126.861 104.963 127.515C111.07 129.696 119.794 124.025 124.811 120.535Z" fill="#585858"/>
</g>
<defs>
<clipPath id="clip0_57_115">
<rect width="128" height="128" fill="white" transform="translate(128) rotate(90)"/>
</clipPath>
</defs>
</svg>
