<svg width="97" height="97" viewBox="0 0 97 97" fill="none" xmlns="http://www.w3.org/2000/svg">
<g clip-path="url(#clip0_54_149)">
<path d="M39.6921 80.6122C40.8918 86.6104 43.9766 91.7518 47.7469 96.3792C48.604 97.4075 50.3178 97.0645 51.0033 96.0362C54.0881 90.5521 56.6588 84.5539 57.3443 78.2132C57.5157 76.3281 54.6023 76.1564 54.2595 77.8702C53.0599 82.4974 51.3461 86.9535 49.1182 91.2376C48.2613 90.038 47.4041 88.667 46.7186 87.2959C47.9182 88.4956 50.6606 87.9815 50.6606 85.7536C50.832 57.819 57.1729 29.0278 52.203 1.43577C51.8602 -0.792145 48.0899 -0.278001 48.2613 1.9499C50.4892 30.0558 46.2045 57.6473 46.0331 85.7536C46.0331 85.9249 46.0331 86.0963 46.0331 86.0963C45.0048 84.0398 44.3196 81.9832 43.8052 79.584C43.4622 76.8419 39.178 77.8702 39.6921 80.6122Z" fill="#585858"/>
</g>
<defs>
<clipPath id="clip0_54_149">
<rect width="97" height="97" fill="white" transform="translate(97 97) rotate(-180)"/>
</clipPath>
</defs>
</svg>
