<svg width="128" height="128" viewBox="0 0 128 128" fill="none" xmlns="http://www.w3.org/2000/svg">
<path d="M103.839 49.6229L103.667 49.3902L103.633 49.3221L88.0229 26.1484L72.4122 49.3223L72.3797 49.3873L72.2062 49.6231C69.7014 53.0155 68.3774 57.0458 68.3774 61.2788C68.3774 72.1115 77.1904 80.924 88.0227 80.924C98.8549 80.924 107.668 72.1112 107.668 61.2788C107.668 57.0456 106.344 53.0149 103.839 49.6229Z" fill="#E094FF"/>
<path d="M88.0232 87.6189C73.4997 87.6189 61.6845 75.8034 61.6845 61.2801C61.6845 55.6345 63.4432 50.2548 66.7713 45.7175L77.0333 30.4836L61.2133 7L28.2523 55.9295C23.07 62.9819 20.3315 71.3436 20.3315 80.118C20.3315 102.66 38.6711 121 61.2135 121C82.5728 121 100.156 104.534 101.943 83.6297C97.9016 86.1562 93.1305 87.6189 88.0232 87.6189Z" fill="#7E3E98"/>
</svg>
