<svg width="128" height="128" viewBox="0 0 128 128" fill="none" xmlns="http://www.w3.org/2000/svg">
<g clip-path="url(#clip0_120_450)">
<path d="M114.76 79.9957L114.759 79.9957C111.251 80.212 107.137 82.0838 102.682 84.48C101.31 85.2179 99.906 86.0051 98.4842 86.8025C95.3324 88.5702 92.0905 90.3884 88.9011 91.8327L88.9009 91.8328C83.1403 94.439 75.8199 94.6813 69.9908 94.2911C67.067 94.0954 64.4993 93.7391 62.6621 93.4317C61.7432 93.278 61.0063 93.1364 60.4982 93.033C60.2441 92.9813 60.0472 92.9391 59.9133 92.9097C59.8929 92.9053 59.8739 92.9011 59.8565 92.8972C59.8166 92.8884 59.7845 92.8812 59.7604 92.8757L59.7208 92.8667L59.7107 92.8644L59.7091 92.864C59.7101 92.8643 59.7652 92.8734 59.8198 92.8764L59.6076 91.9237C60.322 91.5888 61.5521 91.1772 62.997 90.7384C64.4521 90.2964 66.1583 89.8171 67.8437 89.3483C68.14 89.2659 68.4355 89.1839 68.729 89.1024C70.1079 88.7195 71.4408 88.3495 72.582 88.0173C73.9783 87.6109 75.0492 87.272 75.5682 87.0428L75.569 87.0424C81.3468 84.5031 83.9083 80.6253 84.4003 77.4851C84.6473 75.9078 84.3733 74.5317 83.7543 73.573C83.1441 72.628 82.1865 72.0625 80.9628 72.0823L114.76 79.9957ZM114.76 79.9957C116.599 79.8815 118.718 80.3074 120.254 81.2893C121.017 81.777 121.621 82.3916 121.988 83.1296C122.353 83.8622 122.5 84.7461 122.306 85.8067M114.76 79.9957L73.2387 112.058M54.4244 76.0447L54.4242 76.0447C49.9826 76.6485 45.2184 76.9277 40.7064 77.1923C39.4916 77.2635 38.295 77.3336 37.128 77.4087C31.5904 77.7652 26.7582 78.2326 23.6567 79.4165L54.4244 76.0447ZM54.4244 76.0447C60.9348 75.1572 65.4313 74.3071 69.047 73.6237M54.4244 76.0447L69.047 73.6237M73.2387 112.058L73.239 112.058C76.2715 111.896 78.0798 111.754 79.5589 111.509C81.0282 111.266 82.1834 110.92 83.9108 110.334L83.9112 110.334C93.0948 107.231 102.64 101.535 109.945 96.353C113.595 93.7637 116.676 91.3092 118.863 89.3813C119.958 88.4167 120.823 87.5891 121.422 86.9462C121.722 86.624 121.948 86.3556 122.102 86.1446C122.179 86.0391 122.232 85.9545 122.267 85.8899C122.304 85.8227 122.308 85.7981 122.306 85.8067M73.2387 112.058C70.8353 112.188 68.8192 112.302 67.0549 112.402C58.3402 112.894 55.7676 113.039 42.9998 113.039C41.1754 113.039 38.9475 113.951 36.6878 115.238C34.4089 116.535 32.0217 118.258 29.8578 119.972C27.692 121.687 25.7396 123.401 24.3292 124.686C23.6237 125.329 23.0533 125.864 22.6588 126.24C22.5593 126.334 22.4711 126.419 22.3947 126.492L0.640254 105.417M73.2387 112.058L0.640254 105.417M122.306 85.8067C122.306 85.807 122.306 85.8074 122.306 85.8078L122.306 85.8074C122.306 85.8072 122.306 85.8069 122.306 85.8067ZM69.047 73.6237C69.5532 73.528 70.0421 73.4355 70.5169 73.3467M69.047 73.6237L70.5169 73.3467M70.5169 73.3467C74.3804 72.6241 77.2918 72.144 80.9625 72.0823L70.5169 73.3467ZM0.640254 105.417C0.744653 105.254 0.885437 105.034 1.05966 104.765C1.47184 104.129 2.07108 103.216 2.81839 102.109C4.31333 99.8939 6.39923 96.9066 8.76431 93.8134C11.1306 90.7187 13.7699 87.5265 16.3716 84.8981C18.9862 82.2566 21.5145 80.2351 23.6566 79.4165L0.640254 105.417ZM84.0713 110.808C102.569 104.559 122.432 87.9017 122.798 85.8975L42.9998 113.539C55.7816 113.539 58.3639 113.394 67.0838 112.901C68.8481 112.801 70.8636 112.687 73.2657 112.558C79.329 112.233 80.6002 111.984 84.0713 110.808Z" stroke="white"/>
<path d="M83.8247 45.9192C84.2098 45.9977 84.6017 45.8276 84.8098 45.4947C89.9546 37.2042 97.7232 27.1753 107.853 20.3596C98.4117 29.4267 91.7445 38.9711 87.7028 47.956C87.5814 48.2258 87.5952 48.5358 87.7378 48.7947C87.8818 49.0532 88.1383 49.2295 88.4315 49.2699C89.0912 49.3594 89.7763 49.4057 90.4662 49.4057C96.9363 49.4057 103.381 45.4631 107.647 42.1563C112.519 38.38 117.198 33.3902 120.164 28.8057C124.613 21.9297 127.395 13.4554 127.998 4.94205C128.017 4.67117 127.918 4.40542 127.726 4.21237C127.533 4.02035 127.266 3.91954 126.996 3.94046C120.55 4.39685 104.555 6.46553 95.2016 15.8008C94.8748 16.0957 91.4311 19.2644 88.2285 24.3292C83.8391 31.2742 82.0598 38.4702 83.0858 45.1418C83.1444 45.5307 83.439 45.8406 83.8247 45.9192Z" fill="#3A393A"/>
<path d="M58.2438 55.8618C62.3102 59.0137 68.4521 62.7705 74.6187 62.7705C75.2764 62.7705 75.9293 62.7276 76.5567 62.6405C76.8365 62.6021 77.0814 62.4344 77.2178 62.1886C77.3543 61.9424 77.3667 61.6465 77.2521 61.3893C73.4008 52.8266 67.0463 43.7303 58.047 35.0887C67.7019 41.5848 75.1063 51.1433 80.009 59.0439C80.2068 59.3614 80.582 59.5226 80.9482 59.4478C81.3144 59.372 81.5966 59.0775 81.6535 58.7075C82.6294 52.3499 80.9352 45.491 76.7512 38.8732C73.6994 34.0453 70.4155 31.0271 70.1049 30.7449C61.1917 21.8489 45.9477 19.8766 39.8041 19.4421C39.5466 19.4219 39.2918 19.5176 39.109 19.701C38.9259 19.8841 38.8309 20.1385 38.8495 20.3967C39.4242 28.5099 42.0751 36.5861 46.3149 43.1384C49.1417 47.5079 53.6014 52.2632 58.2438 55.8618Z" fill="white"/>
<path d="M67.0315 25.0717C69.7404 27.1702 73.8311 29.673 77.9383 29.673C78.3758 29.673 78.8113 29.6431 79.2299 29.5859C79.4168 29.5605 79.5794 29.4491 79.6699 29.2855C79.7611 29.1202 79.7697 28.9241 79.6922 28.752C77.127 23.0479 72.8957 16.9904 66.9016 11.2349C73.3315 15.5609 78.263 21.9284 81.5294 27.1897C81.6607 27.4006 81.911 27.5093 82.1548 27.4589C82.3986 27.4088 82.5862 27.2127 82.6243 26.9658C83.274 22.7311 82.1459 18.1631 79.3596 13.7548C77.3269 10.5402 75.1396 8.52914 74.9332 8.34158C68.9956 2.41604 58.8429 1.10276 54.7511 0.813016C54.5787 0.799643 54.4096 0.864107 54.2872 0.985834C54.1655 1.10756 54.1024 1.27729 54.1147 1.44908C54.4971 6.85342 56.263 12.2324 59.087 16.5964C60.9695 19.5069 63.9403 22.6738 67.0315 25.0717Z" fill="#686866"/>
</g>
<defs>
<clipPath id="clip0_120_450">
<rect width="128" height="128" fill="white"/>
</clipPath>
</defs>
</svg>
