<svg width="128" height="128" viewBox="0 0 128 128" fill="none" xmlns="http://www.w3.org/2000/svg">
<path d="M9.07438 32.2887L64 0.57735L118.926 32.2887V95.7113L64 127.423L9.07438 95.7113V32.2887Z" stroke="white"/>
<mask id="path-2-outside-1_120_459" maskUnits="userSpaceOnUse" x="28.3929" y="39.8723" width="76" height="49" fill="black">
<rect fill="white" x="28.3929" y="39.8723" width="76" height="49"/>
<path d="M49.8233 41.5318C61.9357 41.5318 69.514 47.8147 69.514 57.9839C69.514 68.0884 61.9357 74.3713 49.8233 74.3713H40.6904V86.8723H30.1973V41.5318H49.8233ZM49.2403 65.8214C55.6528 65.8214 58.8914 62.9066 58.8914 57.9839C58.8914 52.9965 55.6528 50.0817 49.2403 50.0817H40.6904V65.8214H49.2403ZM100.236 78.0633L102.956 85.1882C100.883 86.678 97.8391 87.3905 94.7301 87.3905C86.504 87.3905 81.7109 83.1803 81.7109 74.8895V60.5748H76.3348V52.8022H81.7109V44.317H91.8153V52.8022H100.495V60.5748H91.8153V74.7599C91.8153 77.7394 93.4346 79.3587 96.1551 79.3587C97.6448 79.3587 99.1346 78.9053 100.236 78.0633Z"/>
</mask>
<path d="M49.8233 41.5318C61.9357 41.5318 69.514 47.8147 69.514 57.9839C69.514 68.0884 61.9357 74.3713 49.8233 74.3713H40.6904V86.8723H30.1973V41.5318H49.8233ZM49.2403 65.8214C55.6528 65.8214 58.8914 62.9066 58.8914 57.9839C58.8914 52.9965 55.6528 50.0817 49.2403 50.0817H40.6904V65.8214H49.2403ZM100.236 78.0633L102.956 85.1882C100.883 86.678 97.8391 87.3905 94.7301 87.3905C86.504 87.3905 81.7109 83.1803 81.7109 74.8895V60.5748H76.3348V52.8022H81.7109V44.317H91.8153V52.8022H100.495V60.5748H91.8153V74.7599C91.8153 77.7394 93.4346 79.3587 96.1551 79.3587C97.6448 79.3587 99.1346 78.9053 100.236 78.0633Z" fill="white"/>
<path d="M40.6904 74.3713V73.3713H39.6904V74.3713H40.6904ZM40.6904 86.8723V87.8723H41.6904V86.8723H40.6904ZM30.1973 86.8723H29.1973V87.8723H30.1973V86.8723ZM30.1973 41.5318V40.5318H29.1973V41.5318H30.1973ZM40.6904 50.0817V49.0817H39.6904V50.0817H40.6904ZM40.6904 65.8214H39.6904V66.8214H40.6904V65.8214ZM49.8233 42.5318C55.7164 42.5318 60.3894 44.0604 63.5704 46.7125C66.7304 49.3471 68.514 53.1679 68.514 57.9839H70.514C70.514 52.6307 68.5084 48.2255 64.8511 45.1764C61.2149 42.1447 56.0425 40.5318 49.8233 40.5318V42.5318ZM68.514 57.9839C68.514 62.7656 66.7319 66.5704 63.5715 69.1978C60.39 71.8427 55.7164 73.3713 49.8233 73.3713V75.3713C56.0425 75.3713 61.2142 73.7584 64.8501 70.7358C68.5069 67.6956 70.514 63.3068 70.514 57.9839H68.514ZM49.8233 73.3713H40.6904V75.3713H49.8233V73.3713ZM39.6904 74.3713V86.8723H41.6904V74.3713H39.6904ZM40.6904 85.8723H30.1973V87.8723H40.6904V85.8723ZM31.1973 86.8723V41.5318H29.1973V86.8723H31.1973ZM30.1973 42.5318H49.8233V40.5318H30.1973V42.5318ZM49.2403 66.8214C52.5805 66.8214 55.2558 66.0642 57.1111 64.5166C58.995 62.945 59.8914 60.6779 59.8914 57.9839H57.8914C57.8914 60.2127 57.1684 61.8643 55.8299 62.9808C54.4628 64.1212 52.3126 64.8214 49.2403 64.8214V66.8214ZM59.8914 57.9839C59.8914 55.2616 58.9977 52.9779 57.1133 51.3965C55.2572 49.8389 52.5803 49.0817 49.2403 49.0817V51.0817C52.3128 51.0817 54.4614 51.782 55.8277 52.9286C57.1657 54.0515 57.8914 55.7188 57.8914 57.9839H59.8914ZM49.2403 49.0817H40.6904V51.0817H49.2403V49.0817ZM39.6904 50.0817V65.8214H41.6904V50.0817H39.6904ZM40.6904 66.8214H49.2403V64.8214H40.6904V66.8214ZM100.236 78.0633L101.17 77.7066L100.692 76.4554L99.6283 77.2689L100.236 78.0633ZM102.956 85.1882L103.54 86.0003L104.165 85.5509L103.89 84.8315L102.956 85.1882ZM81.7109 60.5748H82.7109V59.5748H81.7109V60.5748ZM76.3348 60.5748H75.3348V61.5748H76.3348V60.5748ZM76.3348 52.8022V51.8022H75.3348V52.8022H76.3348ZM81.7109 52.8022V53.8022H82.7109V52.8022H81.7109ZM81.7109 44.317V43.317H80.7109V44.317H81.7109ZM91.8153 44.317H92.8153V43.317H91.8153V44.317ZM91.8153 52.8022H90.8153V53.8022H91.8153V52.8022ZM100.495 52.8022H101.495V51.8022H100.495V52.8022ZM100.495 60.5748V61.5748H101.495V60.5748H100.495ZM91.8153 60.5748V59.5748H90.8153V60.5748H91.8153ZM99.3015 78.42L102.022 85.5449L103.89 84.8315L101.17 77.7066L99.3015 78.42ZM102.373 84.3762C100.53 85.7003 97.7191 86.3905 94.7301 86.3905V88.3905C97.9592 88.3905 101.237 87.6557 103.54 86.0003L102.373 84.3762ZM94.7301 86.3905C90.7767 86.3905 87.802 85.3793 85.8199 83.5198C83.8485 81.6702 82.7109 78.8419 82.7109 74.8895H80.7109C80.7109 79.2279 81.9698 82.6501 84.4515 84.9783C86.9225 87.2966 90.4574 88.3905 94.7301 88.3905V86.3905ZM82.7109 74.8895V60.5748H80.7109V74.8895H82.7109ZM81.7109 59.5748H76.3348V61.5748H81.7109V59.5748ZM77.3348 60.5748V52.8022H75.3348V60.5748H77.3348ZM76.3348 53.8022H81.7109V51.8022H76.3348V53.8022ZM82.7109 52.8022V44.317H80.7109V52.8022H82.7109ZM81.7109 45.317H91.8153V43.317H81.7109V45.317ZM90.8153 44.317V52.8022H92.8153V44.317H90.8153ZM91.8153 53.8022H100.495V51.8022H91.8153V53.8022ZM99.4948 52.8022V60.5748H101.495V52.8022H99.4948ZM100.495 59.5748H91.8153V61.5748H100.495V59.5748ZM90.8153 60.5748V74.7599H92.8153V60.5748H90.8153ZM90.8153 74.7599C90.8153 76.4249 91.2698 77.853 92.243 78.8686C93.2219 79.8899 94.5956 80.3587 96.1551 80.3587V78.3587C94.9942 78.3587 94.198 78.0179 93.687 77.4848C93.1706 76.9458 92.8153 76.0745 92.8153 74.7599H90.8153ZM96.1551 80.3587C97.8321 80.3587 99.5436 79.8514 100.843 78.8577L99.6283 77.2689C98.7256 77.9592 97.4576 78.3587 96.1551 78.3587V80.3587Z" fill="black" mask="url(#path-2-outside-1_120_459)"/>
</svg>
