<svg width="128" height="128" viewBox="0 0 128 128" fill="none" xmlns="http://www.w3.org/2000/svg">
<path d="M9.07438 32.2887L64 0.57735L118.926 32.2887V95.7113L64 127.423L9.07438 95.7113V32.2887Z" stroke="white"/>
<mask id="path-2-outside-1_23_215" maskUnits="userSpaceOnUse" x="28.3929" y="39.8723" width="76" height="49" fill="black">
<rect fill="white" x="28.3929" y="39.8723" width="76" height="49"/>
<path d="M30.1973 86.8723V41.5318H49.8233C53.8823 41.5318 57.38 42.2011 60.3164 43.5398C63.2527 44.8352 65.5197 46.7136 67.1174 49.1749C68.7151 51.6363 69.514 54.5726 69.514 57.9839C69.514 61.3521 68.7151 64.2668 67.1174 66.7282C65.5197 69.1895 63.2527 71.0895 60.3164 72.4281C57.38 73.7236 53.8823 74.3713 49.8233 74.3713H36.0268L40.6904 69.6429V86.8723H30.1973ZM40.6904 70.8088L36.0268 65.8214H49.2403C52.4789 65.8214 54.8971 65.1305 56.4948 63.7487C58.0925 62.3669 58.8914 60.4453 58.8914 57.9839C58.8914 55.4794 58.0925 53.5363 56.4948 52.1545C54.8971 50.7726 52.4789 50.0817 49.2403 50.0817H36.0268L40.6904 45.0943V70.8088ZM94.7301 87.3905C90.6278 87.3905 87.4324 86.3541 85.1438 84.2814C82.8552 82.1655 81.7109 79.0349 81.7109 74.8895V44.317H91.8153V74.7599C91.8153 76.2281 92.204 77.3724 92.9812 78.1928C93.7585 78.9701 94.8164 79.3587 96.1551 79.3587C97.7528 79.3587 99.113 78.9269 100.236 78.0633L102.956 85.1882C101.92 85.9223 100.668 86.4837 99.1994 86.8723C97.7744 87.2178 96.2846 87.3905 94.7301 87.3905ZM76.3348 60.5748V52.8022H100.495V60.5748H76.3348Z"/>
</mask>
<path d="M30.1973 86.8723V41.5318H49.8233C53.8823 41.5318 57.38 42.2011 60.3164 43.5398C63.2527 44.8352 65.5197 46.7136 67.1174 49.1749C68.7151 51.6363 69.514 54.5726 69.514 57.9839C69.514 61.3521 68.7151 64.2668 67.1174 66.7282C65.5197 69.1895 63.2527 71.0895 60.3164 72.4281C57.38 73.7236 53.8823 74.3713 49.8233 74.3713H36.0268L40.6904 69.6429V86.8723H30.1973ZM40.6904 70.8088L36.0268 65.8214H49.2403C52.4789 65.8214 54.8971 65.1305 56.4948 63.7487C58.0925 62.3669 58.8914 60.4453 58.8914 57.9839C58.8914 55.4794 58.0925 53.5363 56.4948 52.1545C54.8971 50.7726 52.4789 50.0817 49.2403 50.0817H36.0268L40.6904 45.0943V70.8088ZM94.7301 87.3905C90.6278 87.3905 87.4324 86.3541 85.1438 84.2814C82.8552 82.1655 81.7109 79.0349 81.7109 74.8895V44.317H91.8153V74.7599C91.8153 76.2281 92.204 77.3724 92.9812 78.1928C93.7585 78.9701 94.8164 79.3587 96.1551 79.3587C97.7528 79.3587 99.113 78.9269 100.236 78.0633L102.956 85.1882C101.92 85.9223 100.668 86.4837 99.1994 86.8723C97.7744 87.2178 96.2846 87.3905 94.7301 87.3905ZM76.3348 60.5748V52.8022H100.495V60.5748H76.3348Z" fill="#F16667"/>
<path d="M30.1973 86.8723H29.1973V87.8723H30.1973V86.8723ZM30.1973 41.5318V40.5318H29.1973V41.5318H30.1973ZM60.3164 43.5398L59.9015 44.4497L59.9127 44.4547L60.3164 43.5398ZM67.1174 49.1749L66.2786 49.7194L66.2786 49.7194L67.1174 49.1749ZM60.3164 72.4281L60.72 73.3431L60.7312 73.338L60.3164 72.4281ZM36.0268 74.3713L35.3148 73.6691L33.6359 75.3713H36.0268V74.3713ZM40.6904 69.6429H41.6904V67.205L39.9784 68.9407L40.6904 69.6429ZM40.6904 86.8723V87.8723H41.6904V86.8723H40.6904ZM40.6904 70.8088L39.96 71.4918L41.6904 73.3424V70.8088H40.6904ZM36.0268 65.8214V64.8214H33.7227L35.2964 66.5044L36.0268 65.8214ZM36.0268 50.0817L35.2964 49.3988L33.7227 51.0817H36.0268V50.0817ZM40.6904 45.0943H41.6904V42.5607L39.96 44.4113L40.6904 45.0943ZM31.1973 86.8723V41.5318H29.1973V86.8723H31.1973ZM30.1973 42.5318H49.8233V40.5318H30.1973V42.5318ZM49.8233 42.5318C53.775 42.5318 57.1245 43.1836 59.9015 44.4497L60.7312 42.6299C57.6356 41.2186 53.9897 40.5318 49.8233 40.5318V42.5318ZM59.9127 44.4547C62.6884 45.6793 64.7967 47.4365 66.2786 49.7194L67.9562 48.6305C66.2427 45.9907 63.817 43.9911 60.72 42.6248L59.9127 44.4547ZM66.2786 49.7194C67.7549 51.9937 68.514 54.7338 68.514 57.9839H70.514C70.514 54.4115 69.6754 51.2789 67.9562 48.6305L66.2786 49.7194ZM68.514 57.9839C68.514 61.1881 67.7562 63.9074 66.2786 66.1837L67.9562 67.2727C69.674 64.6263 70.514 61.516 70.514 57.9839H68.514ZM66.2786 66.1837C64.7948 68.4696 62.6826 70.2504 59.9015 71.5182L60.7312 73.338C63.8228 71.9286 66.2446 69.9094 67.9562 67.2727L66.2786 66.1837ZM59.9127 71.5132C57.1325 72.7398 53.7788 73.3713 49.8233 73.3713V75.3713C53.9858 75.3713 57.6276 74.7074 60.72 73.343L59.9127 71.5132ZM49.8233 73.3713H36.0268V75.3713H49.8233V73.3713ZM36.7388 75.0735L41.4024 70.3451L39.9784 68.9407L35.3148 73.6691L36.7388 75.0735ZM39.6904 69.6429V86.8723H41.6904V69.6429H39.6904ZM40.6904 85.8723H30.1973V87.8723H40.6904V85.8723ZM41.4208 70.1258L36.7572 65.1384L35.2964 66.5044L39.96 71.4918L41.4208 70.1258ZM36.0268 66.8214H49.2403V64.8214H36.0268V66.8214ZM49.2403 66.8214C52.5963 66.8214 55.2943 66.1091 57.1489 64.505L55.8406 62.9923C54.4999 64.1519 52.3616 64.8214 49.2403 64.8214V66.8214ZM57.1489 64.505C59.0035 62.9011 59.8914 60.6826 59.8914 57.9839H57.8914C57.8914 60.208 57.1815 61.8326 55.8406 62.9923L57.1489 64.505ZM59.8914 57.9839C59.8914 55.2484 59.0075 53.0055 57.1489 51.3981L55.8406 52.9108C57.1775 54.067 57.8914 55.7105 57.8914 57.9839H59.8914ZM57.1489 51.3981C55.2943 49.794 52.5963 49.0817 49.2403 49.0817V51.0817C52.3616 51.0817 54.4999 51.7513 55.8406 52.9108L57.1489 51.3981ZM49.2403 49.0817H36.0268V51.0817H49.2403V49.0817ZM36.7572 50.7647L41.4208 45.7773L39.96 44.4113L35.2964 49.3988L36.7572 50.7647ZM39.6904 45.0943V70.8088H41.6904V45.0943H39.6904ZM85.1438 84.2814L84.4649 85.0157L84.4725 85.0226L85.1438 84.2814ZM81.7109 44.317V43.317H80.7109V44.317H81.7109ZM91.8153 44.317H92.8153V43.317H91.8153V44.317ZM92.9812 78.1928L92.2553 78.8806L92.2646 78.8904L92.2741 78.9L92.9812 78.1928ZM100.236 78.0633L101.17 77.7066L100.691 76.4516L99.626 77.2707L100.236 78.0633ZM102.956 85.1882L103.534 86.0043L104.167 85.556L103.89 84.8315L102.956 85.1882ZM99.1994 86.8723L99.435 87.8442L99.4451 87.8417L99.4553 87.839L99.1994 86.8723ZM76.3348 60.5748H75.3348V61.5748H76.3348V60.5748ZM76.3348 52.8022V51.8022H75.3348V52.8022H76.3348ZM100.495 52.8022H101.495V51.8022H100.495V52.8022ZM100.495 60.5748V61.5748H101.495V60.5748H100.495ZM94.7301 86.3905C90.7929 86.3905 87.8663 85.3979 85.8151 83.5402L84.4725 85.0226C86.9985 87.3103 90.4628 88.3905 94.7301 88.3905V86.3905ZM85.8227 83.5472C83.8002 81.6773 82.7109 78.8524 82.7109 74.8895H80.7109C80.7109 79.2174 81.9102 82.6538 84.465 85.0157L85.8227 83.5472ZM82.7109 74.8895V44.317H80.7109V74.8895H82.7109ZM81.7109 45.317H91.8153V43.317H81.7109V45.317ZM90.8153 44.317V74.7599H92.8153V44.317H90.8153ZM90.8153 74.7599C90.8153 76.4048 91.2543 77.824 92.2553 78.8806L93.7072 77.5051C93.1537 76.9208 92.8153 76.0514 92.8153 74.7599H90.8153ZM92.2741 78.9C93.2784 79.9042 94.6128 80.3587 96.1551 80.3587V78.3587C95.0201 78.3587 94.2386 78.036 93.6883 77.4857L92.2741 78.9ZM96.1551 80.3587C97.9437 80.3587 99.5258 79.8711 100.845 78.8559L99.626 77.2707C98.7002 77.9828 97.5619 78.3587 96.1551 78.3587V80.3587ZM99.3015 78.42L102.022 85.5449L103.89 84.8315L101.17 77.7066L99.3015 78.42ZM102.378 84.3722C101.456 85.0252 100.318 85.5417 98.9435 85.9056L99.4553 87.839C101.017 87.4256 102.383 86.8195 103.534 86.0043L102.378 84.3722ZM98.9638 85.9005C97.6204 86.2261 96.21 86.3905 94.7301 86.3905V88.3905C96.3592 88.3905 97.9283 88.2094 99.435 87.8442L98.9638 85.9005ZM77.3348 60.5748V52.8022H75.3348V60.5748H77.3348ZM76.3348 53.8022H100.495V51.8022H76.3348V53.8022ZM99.4948 52.8022V60.5748H101.495V52.8022H99.4948ZM100.495 59.5748H76.3348V61.5748H100.495V59.5748Z" fill="black" mask="url(#path-2-outside-1_23_215)"/>
</svg>
