<svg width="128" height="128" viewBox="0 0 128 128" fill="none" xmlns="http://www.w3.org/2000/svg">
<g clip-path="url(#clip0_120_428)">
<path d="M60.041 10.9463C72.4736 -1.48633 92.6309 -1.48633 105.064 10.9463C117.497 23.3789 117.496 43.5362 105.064 55.9688L60.041 10.9463Z" fill="#F2F2F2"/>
<path d="M105.064 10.9463C100.863 6.7461 95.7803 3.9707 90.4121 2.6084C93.4737 4.11133 96.3457 6.12696 98.8916 8.67286C110.667 20.4483 111.281 39.1485 100.751 51.6563L105.064 55.9688C117.496 43.5362 117.496 23.3789 105.064 10.9463Z" fill="#ADADAD"/>
<path d="M66.9326 17.838C75.5459 9.22473 89.5596 9.22571 98.1729 17.838C106.785 26.4503 106.786 40.465 98.1729 49.0783L66.9326 17.838Z" fill="#D7D7D7"/>
<path d="M98.1729 17.8379C94.4649 14.1299 89.7549 12.0225 84.9053 11.5068C87.1416 12.5615 89.2364 14.0088 91.083 15.8555C98.8262 23.5977 99.6036 35.7041 93.4239 44.3291L98.1729 49.0782C106.785 40.4649 106.785 26.4502 98.1729 17.8379Z" fill="#F2F2F2"/>
<path d="M81.0235 121.353L90.6495 29.9072H13.875L23.5009 121.353C23.7714 123.924 25.9384 125.875 28.5244 125.875H76C78.585 125.875 80.753 123.924 81.0235 121.353Z" fill="#F2F2F2"/>
<path d="M86.1035 29.9072L76.4775 121.353C76.207 123.924 74.0391 125.875 71.4541 125.875H76C78.585 125.875 80.7529 123.924 81.0234 121.353L90.6494 29.9072H86.1035Z" fill="#F2F2F2"/>
<path d="M23.2226 40.5146L27.9189 89.6866C28.6621 97.461 35.1923 103.399 43.0029 103.399H61.5205C69.3311 103.399 75.8623 97.462 76.6045 89.6866L81.3018 40.5146H23.2226Z" fill="#F2F2F2"/>
<path d="M73.9805 40.5146L69.2842 89.6866C68.541 97.461 62.0108 103.399 54.2002 103.399H61.5205C69.3311 103.399 75.8623 97.462 76.6045 89.6866L81.3018 40.5146H73.9805Z" fill="#A9A9A9"/>
<path d="M106.391 9.62202C97.7705 1.00189 85.1201 -2.29596 73.376 1.01459C72.3789 1.29584 71.7988 2.33197 72.0801 3.32904C72.3604 4.32514 73.3975 4.90619 74.3936 4.62494C84.833 1.6806 96.0782 4.61225 103.738 12.2734C114.973 23.5088 115.399 41.5234 105.023 53.2754L100.768 49.0205C108.814 39.6152 108.396 25.4091 99.4981 16.5126C90.6006 7.61518 76.3936 7.19721 66.9883 15.2431L62.7334 10.9882C64.0049 9.86518 65.3662 8.85248 66.7979 7.96576C67.6787 7.42084 67.9502 6.26557 67.4053 5.38471C66.8604 4.50385 65.7041 4.23236 64.8232 4.77826C62.6201 6.14252 60.5644 7.77241 58.7148 9.62202C57.9824 10.3535 57.9824 11.541 58.7148 12.2734L74.4736 28.0322H13.8749C13.3437 28.0322 12.8369 28.2578 12.4814 28.6533C12.1259 29.0478 11.955 29.5752 12.0097 30.1035L14.3085 51.9394C14.4169 52.9697 15.3408 53.7168 16.3701 53.6084C17.3994 53.5 18.1464 52.5771 18.038 51.5478L15.958 31.7822H20.5048L26.0527 89.8643C26.8916 98.6485 34.1797 105.273 43.0039 105.273H61.5205C70.3447 105.273 77.6318 98.6495 78.4717 89.8643L80.1846 71.9248C80.2832 70.8936 79.5274 69.9785 78.4971 69.8799C77.4658 69.7822 76.5498 70.5371 76.4522 71.5684L74.7383 89.5079C74.084 96.3584 68.4014 101.523 61.5205 101.523H43.0039C36.122 101.523 30.4404 96.3575 29.7861 89.5079L25.2851 42.3896H79.2393L77.2949 62.7422C77.2002 63.7314 77.9268 64.6475 78.9131 64.7783C79.9531 64.917 80.9277 64.1426 81.0283 63.0986L84.0195 31.7822H88.5664L79.1582 121.156C78.9873 122.777 77.6299 124 76 124H28.5244C26.8935 124 25.5361 122.777 25.3652 121.156L18.9736 60.4297C18.8652 59.3994 17.9394 58.6543 16.9121 58.7607C15.8828 58.8691 15.1357 59.792 15.2441 60.8223L21.6357 121.549C22.0078 125.084 24.9687 127.75 28.5244 127.75H76C79.5547 127.75 82.5156 125.084 82.8877 121.549L90.9932 44.5498L103.739 57.2939C104.106 57.6602 104.586 57.8437 105.065 57.8437C105.545 57.8437 106.025 57.6602 106.392 57.2939C119.531 44.1504 119.531 22.7646 106.391 9.62202C119.531 22.7646 97.7705 1.00189 106.391 9.62202ZM79.5977 38.6386H24.9267L24.2714 31.7822H80.2529L79.5977 38.6386ZM92.042 28.6533C91.6865 28.2578 91.1807 28.0322 90.6494 28.0322H79.7783L69.6484 17.9023C77.582 11.3105 89.4121 11.7294 96.8467 19.164C104.281 26.5976 104.7 38.4287 98.1094 46.3623L91.4981 39.7519L92.5137 30.1035C92.5694 29.5752 92.3985 29.0478 92.042 28.6533Z" fill="black"/>
</g>
<defs>
<clipPath id="clip0_120_428">
<rect width="128" height="128" fill="white"/>
</clipPath>
</defs>
</svg>
