<svg width="128" height="128" viewBox="0 0 128 128" fill="none" xmlns="http://www.w3.org/2000/svg">
<g clip-path="url(#clip0_23_230)">
<path d="M36.6442 50.1166C36.6707 49.7056 36.5327 49.3005 36.2608 48.9911L23.9544 34.9904C23.6825 34.6811 23.2987 34.4924 22.8873 34.4658C22.4742 34.4395 22.0712 34.5773 21.7619 34.8492C16.1071 39.8199 11.4133 45.6819 7.81029 52.2725C7.61285 52.6341 7.56663 53.0593 7.6825 53.4544C7.79837 53.8497 8.0665 54.1829 8.42812 54.3803L24.7847 63.3211C25.0213 63.4505 25.2766 63.5118 25.5287 63.5118C26.0781 63.5118 26.6108 63.2194 26.893 62.7032C29.2743 58.347 32.3788 54.4713 36.1194 51.1832C36.4294 50.9117 36.618 50.528 36.6442 50.1166Z" fill="#ADBD07"/>
<path d="M42.1359 44.9316C42.4149 45.4576 42.953 45.7574 43.5096 45.7574C43.7551 45.7574 44.0042 45.699 44.2359 45.576C48.6201 43.2509 53.3365 41.7337 58.2542 41.0665C59.1042 40.9513 59.7001 40.1687 59.5849 39.3185L57.0794 20.8471C56.9642 19.9972 56.1793 19.4021 55.3314 19.5165C47.863 20.5294 40.7015 22.833 34.0457 26.3633C33.288 26.7653 32.9995 27.7052 33.4011 28.4633L42.1359 44.9316Z" fill="#F16667"/>
<path d="M22.125 69.9283L4.13448 65.0472C3.73689 64.9397 3.31273 64.9939 2.95529 65.1988C2.59786 65.4038 2.33663 65.7422 2.2285 66.1398C0.750013 71.5911 0 77.2411 0 82.9329C0 83.9069 0.0232157 84.884 0.0715294 85.9204C0.110222 86.753 0.796863 87.4018 1.62217 87.4018C1.64643 87.4018 1.67111 87.4014 1.69537 87.4001L20.3162 86.5399C20.7276 86.5211 21.1152 86.3391 21.3923 86.0348C21.6699 85.7305 21.8152 85.3279 21.796 84.9165C21.7636 84.2177 21.7479 83.5687 21.7479 82.9329C21.7479 79.164 22.2425 75.43 23.218 71.8341C23.442 71.0063 22.9528 70.1532 22.125 69.9283Z" fill="#CADE00"/>
<path d="M91.7607 25.2539C84.982 21.9859 77.7393 19.9607 70.234 19.2333C69.8215 19.1919 69.4145 19.3186 69.0964 19.5803C68.7783 19.8421 68.5775 20.2194 68.5378 20.6298L66.7405 39.1839C66.6577 40.0377 67.2831 40.7971 68.137 40.8797C73.0838 41.3589 77.8548 42.6929 82.3174 44.844C82.5297 44.9464 82.7604 44.9983 82.9919 44.9983C83.1647 44.9983 83.3379 44.9692 83.5043 44.9113C83.8931 44.7756 84.2123 44.4905 84.3911 44.1195L92.4853 27.3274C92.8582 26.5548 92.5338 25.6262 91.7607 25.2539Z" fill="#D3595A"/>
<path d="M119.141 51.3123C119.241 50.9126 119.179 50.4899 118.968 50.136C115.113 43.6869 110.197 38.0088 104.359 33.2605C104.039 33.0007 103.631 32.879 103.22 32.9202C102.81 32.9627 102.434 33.1658 102.174 33.4853L90.4119 47.9468C90.1521 48.2666 90.0296 48.6763 90.072 49.0861C90.1141 49.4958 90.3174 49.8721 90.6372 50.1322C94.5002 53.2735 97.7514 57.029 100.301 61.2944C100.592 61.7809 101.107 62.0511 101.636 62.0511C101.907 62.0511 102.182 61.98 102.431 61.8306L118.432 52.2666C118.785 52.0552 119.04 51.712 119.141 51.3123Z" fill="#9C2B44"/>
<path d="M125.081 63.7781C124.824 62.9593 123.952 62.5031 123.134 62.7602L105.347 68.3336C104.528 68.59 104.072 69.4615 104.329 70.28C105.605 74.3555 106.253 78.6123 106.253 82.9323C106.253 83.5683 106.237 84.2173 106.204 84.9159C106.185 85.3273 106.33 85.7299 106.608 86.0342C106.886 86.3387 107.273 86.5205 107.684 86.5393L126.305 87.3995C126.33 87.4006 126.354 87.4012 126.378 87.4012C127.203 87.4012 127.89 86.7522 127.929 85.9198C127.977 84.8835 128 83.9063 128 82.9323C128 76.4039 127.018 69.9595 125.081 63.7781Z" fill="#651A2B"/>
<path d="M63.945 79.635C63.6771 79.635 63.4106 79.6438 63.1452 79.658L37.9112 64.7697C37.2936 64.4047 36.5095 64.4961 35.9921 64.9924C35.4742 65.4883 35.35 66.268 35.6876 66.9001L49.4528 92.6998C49.4022 93.1968 49.3752 93.6985 49.3752 94.2047C49.3752 98.0965 50.8907 101.755 53.6425 104.507C56.3945 107.259 60.0534 108.774 63.9452 108.774C67.8371 108.774 71.4958 107.259 74.2476 104.507C76.9996 101.755 78.5149 98.0965 78.5149 94.2047C78.5149 90.3128 76.9994 86.6541 74.2476 83.9023C71.4958 81.1505 67.8367 79.635 63.945 79.635Z" fill="white"/>
</g>
<defs>
<clipPath id="clip0_23_230">
<rect width="128" height="128" fill="white"/>
</clipPath>
</defs>
</svg>
