<svg width="128" height="128" viewBox="0 0 128 128" fill="none" xmlns="http://www.w3.org/2000/svg">
<g clip-path="url(#clip0_120_465)">
<path d="M64 128C80.3237 128 95.217 121.886 106.523 111.826L82.9202 88.2233L64 97.0658L32.577 82.3801V45.6201L37.8517 43.1548L16.1742 21.4771C6.1145 32.7831 0 47.6763 0 64.0001C0 99.3463 28.6538 128 64 128Z" fill="#686866"/>
<path d="M67.75 63.3267V87.0344L87.923 77.6064V53.8987L67.75 63.3267Z" fill="white" fill-opacity="0.9"/>
<path d="M45.1835 48.0069L64 56.8009L82.8165 48.0069L64 39.2126L45.1835 48.0069Z" fill="white" fill-opacity="0.9"/>
<path d="M64 0C47.6763 0 32.783 6.1145 21.4772 16.174L45.0798 39.7767L64 30.9342L95.423 45.6203V82.38L90.1482 84.8453L111.826 106.523C121.885 95.217 128 80.3237 128 64C128 28.6538 99.3463 0 64 0Z" fill="#686866"/>
<path d="M60.25 63.3267L40.077 53.8987V77.6064L60.25 87.0344V63.3267Z" fill="white" fill-opacity="0.9"/>
</g>
<defs>
<clipPath id="clip0_120_465">
<rect width="128" height="128" fill="white"/>
</clipPath>
</defs>
</svg>
