<svg width="25" height="25" viewBox="0 0 25 25" fill="none" xmlns="http://www.w3.org/2000/svg">
<path d="M23.0219 10.937C22.5199 10.431 22.0206 9.92504 21.5124 9.42692C21.395 9.31938 21.3026 9.18747 21.2416 9.04043C21.1806 8.89339 21.1525 8.73478 21.1593 8.57574C21.1745 7.79876 21.1767 7.02066 21.1593 6.24368C21.146 5.68575 20.932 5.15131 20.5567 4.73829C20.1814 4.32527 19.6698 4.06133 19.1157 3.99483C18.2768 3.89589 17.4318 3.96054 16.5902 3.96223C16.4227 3.96823 16.256 3.93757 16.1016 3.87241C15.9471 3.80725 15.8088 3.70916 15.6963 3.58498C15.1942 3.06606 14.6809 2.56007 14.1671 2.05408C13.7842 1.67515 13.3322 1.4244 12.7902 1.3575C12.124 1.24506 11.5258 1.42103 11.0108 1.83257C10.3513 2.3588 9.79757 2.99916 9.20387 3.59623C8.95481 3.84697 8.69113 3.96672 8.33469 3.95773C7.60382 3.93918 6.87294 3.9448 6.14207 3.95773C4.77926 3.97572 3.75267 5.01075 3.74479 6.36905C3.7403 7.11792 3.73524 7.86735 3.74479 8.6179C3.75009 8.76736 3.72298 8.9162 3.66534 9.05419C3.60769 9.19219 3.52087 9.31608 3.41084 9.41737C2.89023 9.92954 2.37637 10.4479 1.86138 10.9663C0.862335 11.9726 0.864021 13.4124 1.86532 14.4188C2.38705 14.9435 2.90972 15.4666 3.43333 15.9879C3.53556 16.0841 3.61616 16.2009 3.66976 16.3306C3.72337 16.4603 3.74875 16.5999 3.74423 16.7402C3.73467 17.4795 3.73917 18.2194 3.74423 18.9587C3.74929 20.3901 4.77027 21.4138 6.20278 21.4234C6.88643 21.4285 7.57065 21.4459 8.25261 21.4172C8.67483 21.3992 8.97617 21.5471 9.26459 21.8422C9.8476 22.4359 10.3924 23.0746 11.0547 23.5823C11.5607 23.9685 12.1442 24.1445 12.7902 24.0225C12.7571 24.0281 12.7237 24.0313 12.6901 24.0321C12.7237 24.031 12.7571 24.0278 12.7902 24.0225C13.2025 23.9757 13.5918 23.8081 13.909 23.5407C14.5573 22.9863 15.1273 22.3505 15.7323 21.7506C15.9572 21.5257 16.2057 21.4133 16.5306 21.4178C17.2514 21.4318 17.9727 21.4256 18.694 21.4212C20.1366 21.4116 21.1492 20.4019 21.1599 18.9615C21.1649 18.2402 21.1722 17.5188 21.1559 16.7981C21.1494 16.6394 21.1778 16.4812 21.239 16.3346C21.3001 16.188 21.3927 16.0567 21.5101 15.9497C22.0161 15.451 22.517 14.9439 23.0202 14.4402C24.0502 13.4063 24.0502 11.9676 23.0219 10.937Z" fill="#2C96FF"/>
<path d="M18.0211 10.0213C18.0417 10.3368 17.9053 10.6367 17.6786 10.8965C16.1307 12.6708 14.5808 14.443 13.0289 16.2133C12.4672 16.8523 11.7424 16.9185 11.0728 16.3883C9.95977 15.508 8.85579 14.6157 7.75182 13.7239C7.49938 13.5174 7.33107 13.2257 7.27853 12.9038C7.22598 12.5819 7.29282 12.2519 7.46648 11.9758C7.64014 11.6997 7.90866 11.4965 8.22158 11.4044C8.53449 11.3124 8.87026 11.3378 9.16577 11.4759C9.42157 11.5922 9.62471 11.7798 9.83989 11.9504C10.3766 12.3752 10.9077 12.807 11.4409 13.2364C11.7303 13.4691 11.8487 13.4671 12.093 13.1862C13.2058 11.9186 14.3155 10.6479 15.422 9.37425C15.764 8.98051 16.1131 8.6279 16.6925 8.63944C17.4453 8.65498 18.0231 9.22829 18.0211 10.0213Z" fill="white"/>
</svg>
